<?xml version="1.0" encoding="utf-8"?>
<!-- Generator: Adobe Illustrator 21.0.0, SVG Export Plug-In . SVG Version: 6.00 Build 0)  -->
<svg version="1.1" id="Layer_1" xmlns="http://www.w3.org/2000/svg" xmlns:xlink="http://www.w3.org/1999/xlink" x="0px" y="0px"
	 viewBox="0 0 140 33" style="enable-background:new 0 0 140 33;" xml:space="preserve">
<g>
	<path d="M110.5,13.3c0,5,0,9.6,0,14.2c0,1.4,1,2.2,2.5,2.3c0.7,0.1,1.4,0,2.2,0c0,0.1,0,0.2,0,0.5c-3.9,0-7.9,0-11.8,0
		c0-0.1,0-0.1,0-0.2c0.5,0,1-0.1,1.4-0.1c2.9-0.1,3.5-0.8,3.5-3.7c0-4.2,0-8.4,0-12.5c0-2.3-0.5-3-2.6-3.7c-1-0.4-2-0.5-3.2-1
		c0.4,0,0.6-0.1,1-0.1c2.3,0,4.5-0.1,6.8,0c0.7,0,1.4,0.4,1.9,0.8c6.2,4.7,12.5,9.4,18.8,14.2c0.4,0.2,0.8,0.6,1.4,1.1
		c0-1,0-1.6,0-2.3c0-3.1,0-6.2,0-9.3c0-3-0.7-3.7-3.7-3.8c-0.4,0-0.7-0.1-1.1-0.4c3.9,0,8,0,11.9,0c0,0.1,0,0.1,0,0.2
		c-0.5,0-1.1,0.1-1.6,0.1c-2.6,0.2-3.3,1-3.3,3.6c0,5.4,0,10.9,0,16.2c0,0.5,0,1.1,0,2c-1-0.5-1.7-0.7-2.2-1.2
		c-6.8-5.3-13.5-10.5-20.3-15.8C111.6,14,111.2,13.7,110.5,13.3z"/>
	<path d="M0.6,30c1-0.1,1.9-0.2,2.9-0.4c1.3-0.2,1.9-1,1.9-2.3c0-5.1,0-10.4,0-15.5c0-1.6-0.8-2.2-2.9-2.4C1.9,9.3,1.2,9.3,0.6,9
		c8.8,0,17.7,0,26.6,0c0.1,1.6,0.2,3.2,0.4,4.8c-0.1,0.1-0.2,0.1-0.4,0.2c-0.2-0.2-0.6-0.5-0.7-0.8c-1-2-2.6-3-4.7-3.1
		c-3.7-0.1-7.4,0-11.2,0c0,2.7,0,5.4,0,7.9c3.5,0,6.8,0.1,10.2,0c1.2,0,2.4-0.7,2.6-2.2c0-0.1,0.1-0.2,0.2-0.4c0.1,0,0.2,0,0.4,0
		c0,2.4,0,4.8,0,7.4c-0.4-0.1-0.6-0.2-0.6-0.4c-0.4-2.4-2.2-3.1-4.2-3.2c-2.9-0.1-5.7,0-8.8,0c0,3-0.1,5.9,0.1,8.7
		c0,0.5,1.1,1.4,1.6,1.4c3.7,0,7.4,0,11.1-0.4c2.4-0.2,4.2-1.7,5.6-3.7c0.2-0.4,0.7-0.6,1.1-0.8c0.1,0.1,0.2,0.2,0.4,0.4
		c-1,1.8-1.8,3.6-2.7,5.3c-0.1,0.2-0.6,0.4-1,0.4c-8.6,0-17.1,0-25.7,0c-0.1,0-0.2-0.1-0.4-0.1C0.6,30.1,0.6,30.1,0.6,30z"/>
	<path d="M102.4,30.2c-4.9,0-9.6,0-14.3,0c0-0.1,0-0.2,0-0.4c0.7,0,1.4,0,2-0.1c1.6-0.2,2-1.1,1.2-2.5c0,0,0-0.1-0.1-0.1
		c-2.4-3.9-2.4-3.9-7-3.9c-2.7,0-5.5,0-8.2,0c-1,0-1.4,0.2-1.9,1.1c-0.6,1-1.3,1.9-2,2.9c-1,1.4-0.5,2.3,1.2,2.6
		c0.7,0.1,1.4,0.1,2.2,0.5c-3.6,0-7.2,0-10.9,0c0.1-0.1,0.1-0.4,0.2-0.4c2.4,0,3.7-1.4,5-3.2c3.9-5.7,7.9-11.3,11.9-17.1
		c1.2-1.7,1.7-1.7,2.9,0c3.7,5.4,7.4,10.8,11.1,16.2c1.6,2.3,3.2,4.3,6.3,4.1C101.9,29.9,102,30,102.4,30.2z M75.5,22
		c4.1,0,7.9,0,11.9,0c-2-3-3.8-5.7-5.9-8.7C79.4,16.3,77.5,19,75.5,22z"/>
	<path d="M32.9,9c5,0,9.9,0,14.9,0c0,0.1,0,0.2,0,0.2c-0.5,0.1-1,0.1-1.3,0.1c-2.7,0.1-3.6,1-3.6,3.7c0,4.7,0,9.3,0,13.9
		c0,1.4,0.6,2.4,1.9,2.4c3.6,0,7,0,10.6-0.4c2.6-0.2,4.9-1.7,6.5-4.1c0.1-0.2,0.5-0.4,0.8-0.6c0.1,0.1,0.2,0.2,0.4,0.2
		c-1,1.8-1.8,3.6-2.9,5.4c-0.1,0.2-0.6,0.4-1,0.4c-8.6,0-17.2,0-25.9,0c-0.1,0-0.4-0.1-0.5-0.5c0.6,0,1.2-0.1,1.8-0.1
		c2.3-0.1,3.1-1,3.1-3.2c0-4.5,0-9.1,0-13.6c0-2.6-0.7-3.3-3.2-3.6c-0.5,0-1.1,0-1.6-0.1C32.9,9.2,32.9,9.1,32.9,9z"/>
	<path d="M14,6.8c0.7-1.6,1.4-3.1,2.3-4.5C16.4,2,17,1.8,17.3,1.7c1.3-0.1,2.7,0,4.3,0.2c-2.4,1.8-4.8,3.5-7.2,5.3
		C14.2,7.1,14.1,6.9,14,6.8z"/>
</g>
</svg>
